<svg width="20" height="20" viewBox="0 0 20 20" fill="none" xmlns="http://www.w3.org/2000/svg">
<path d="M1.25 16.8737H18.75" stroke="#304D95" stroke-width="1.5" stroke-linecap="round" stroke-linejoin="round"/>
<path d="M11.2495 16.8737V3.12369C11.2495 2.95793 11.1837 2.79896 11.0665 2.68175C10.9493 2.56454 10.7903 2.49869 10.6245 2.49869H3.12454C2.95878 2.49869 2.79981 2.56454 2.6826 2.68175C2.56539 2.79896 2.49954 2.95793 2.49954 3.12369V16.8737" stroke="#304D95" stroke-width="1.5" stroke-linecap="round" stroke-linejoin="round"/>
<path d="M17.4995 16.8737V8.12369C17.4995 7.95793 17.4337 7.79896 17.3165 7.68175C17.1993 7.56454 17.0403 7.49869 16.8745 7.49869H11.2495" stroke="#304D95" stroke-width="1.5" stroke-linecap="round" stroke-linejoin="round"/>
<path d="M4.99954 5.62369H7.49954" stroke="#304D95" stroke-width="1.5" stroke-linecap="round" stroke-linejoin="round"/>
<path d="M6.24954 10.6237H8.74954" stroke="#304D95" stroke-width="1.5" stroke-linecap="round" stroke-linejoin="round"/>
<path d="M4.99954 13.7487H7.49954" stroke="#304D95" stroke-width="1.5" stroke-linecap="round" stroke-linejoin="round"/>
<path d="M13.7495 13.7487H14.9995" stroke="#304D95" stroke-width="1.5" stroke-linecap="round" stroke-linejoin="round"/>
<path d="M13.7495 10.6237H14.9995" stroke="#304D95" stroke-width="1.5" stroke-linecap="round" stroke-linejoin="round"/>
</svg>
