<svg width="6" height="17" viewBox="0 0 6 17" fill="none" xmlns="http://www.w3.org/2000/svg">
<path d="M3.93949 6.48242C3.57381 6.48242 2.81823 6.59643 2.60926 6.85763C2.4003 7.11883 2.18541 7.49339 2.29138 8.12916L3.21405 15.108C3.21405 15.5782 3.31853 15.9439 3.52749 16.2051C3.73645 16.4663 3.8808 16.5 4.09272 16.5C4.30465 16.5 4.35446 16.4663 4.61566 16.2051C4.82462 15.9439 4.98134 15.5782 4.98134 15.108L5.61711 7.84067C5.61711 7.42275 5.51263 7.10931 5.25142 6.8481C4.99022 6.5869 4.51657 6.48242 3.93949 6.48242Z" fill="#FF6D03"/>
<path d="M0.723218 3.14914C0.881238 2.89558 1.76615 3.11745 2.42984 3.59286C3.28315 4.19505 3.82042 5.27266 3.6308 5.52622C3.44117 5.77977 2.42984 5.17758 1.82936 4.67047C1.3237 4.25844 0.565197 3.43439 0.723218 3.14914Z" fill="#009444"/>
<path d="M3.72568 0.501133C3.9801 0.460602 4.36172 1.51442 4.48893 2.48718C4.61613 3.78419 4.27691 5.16227 4.0225 5.16227C3.72568 5.16227 3.51367 3.74366 3.47126 2.7709C3.42886 1.91974 3.47127 0.541665 3.72568 0.501133Z" fill="#009444"/>
<path d="M5.94529 3.27081C5.80574 3.16837 5.3173 3.57811 5.06146 4.06467C4.71258 4.67927 4.6428 5.49874 4.82887 5.57556C5.01494 5.678 5.45686 5.01218 5.66618 4.52562C5.87551 4.11588 6.1081 3.39885 5.94529 3.27081Z" fill="#009444"/>
</svg>
