<svg width="51" height="39" viewBox="0 0 51 39" fill="none" xmlns="http://www.w3.org/2000/svg">
<path d="M24.3514 20.9474C26.3028 22.1138 29.0985 23.9764 32.0471 26.7367C35.8154 30.2665 41.2232 36.5505 39.9263 38.352C39.1065 39.4879 35.8276 38.5657 32.7873 37.7169C31.2885 37.2955 31.4475 37.21 27.147 35.5367C22.6262 33.778 21.3783 33.4543 19.433 32.068C18.3808 31.3169 17.4693 30.6512 16.5945 29.4482C16.3375 29.094 15.8726 28.4894 15.4872 27.6467C15.3893 27.4268 14.0925 24.4833 14.9611 22.5596C15.8971 20.4894 19.4819 19.323 23.4582 20.5444L24.3514 20.9474Z" fill="#E87E24"/>
<path d="M1.51502 23.0545C1.52726 22.395 4.34738 21.711 6.89834 21.7965C10.2079 21.9064 13.5051 23.3171 13.4011 24.0377C13.291 24.7827 9.54106 24.856 7.08186 24.6301C4.92242 24.4224 1.50891 23.7812 1.51502 23.0545Z" fill="#397E44"/>
<path d="M0.0101544 14.7672C0.218146 14.1321 3.73566 14.8649 6.69648 16.2084C10.5443 17.9489 13.9884 20.9412 13.6459 21.5886C13.291 22.2542 8.87428 20.471 6.06639 19.042C3.58884 17.7779 -0.222307 15.4695 0.0101544 14.7672Z" fill="#397E44"/>
<path d="M15.1018 19.9217C14.594 20.1355 13.1075 18.2118 12.3122 16.2393C11.2723 13.6744 11.2356 10.682 11.829 10.5171C12.4407 10.3461 13.7682 13.1858 14.4227 15.14C15.0039 16.8561 15.6646 19.6835 15.1018 19.9217Z" fill="#397E44"/>
<path opacity="0.56" d="M18.9925 25.3998C18.5949 25.5525 17.9832 25.8517 17.3775 26.3953C16.7597 26.9571 16.3988 27.5495 16.203 27.9281" stroke="#603913" stroke-width="0.25" stroke-miterlimit="10" stroke-linecap="round"/>
<path opacity="0.56" d="M17.8793 27.2984C17.7264 27.3778 17.4878 27.5243 17.2492 27.7991C17.0045 28.08 16.8638 28.3732 16.7904 28.5686" stroke="#603913" stroke-width="0.25" stroke-miterlimit="10" stroke-linecap="round"/>
<path opacity="0.56" d="M37.8832 33.7596C37.7303 33.839 37.4917 33.9856 37.2531 34.2604C37.0084 34.5413 36.8677 34.8344 36.7943 35.0298" stroke="#603913" stroke-width="0.25" stroke-miterlimit="10" stroke-linecap="round"/>
<path opacity="0.56" d="M38.0178 34.2295C37.9077 34.2845 37.7364 34.3883 37.5713 34.5593C37.4061 34.7364 37.3143 34.9196 37.2654 35.0356" stroke="#603913" stroke-width="0.25" stroke-miterlimit="10" stroke-linecap="round"/>
<path d="M38.2692 15.1311C38.9059 16.5163 39.7454 18.6066 40.3289 21.2513C41.0739 24.6324 41.6809 30.1583 40.2805 30.6626C39.3964 30.9798 37.9329 29.2263 36.5737 27.6038C35.9047 26.8023 36.0251 26.8153 34.2817 24.259C32.4489 21.5718 31.8815 20.9195 31.3316 19.4151C31.0347 18.6006 30.7831 17.8868 30.7557 16.8898C30.7479 16.5965 30.7201 16.0858 30.8267 15.4736C30.8559 15.3149 31.2552 13.1954 32.4652 12.4611C33.7679 11.6713 36.1926 12.386 37.9282 14.5695L38.2692 15.1311Z" fill="#E87E24"/>
<path d="M24.8135 7.68816C25.0592 7.30016 26.8783 7.93319 28.2688 8.92488C30.0731 10.2109 31.3995 12.2665 31.0805 12.657C30.7493 13.0598 28.6332 11.7204 27.3447 10.6789C26.2167 9.75893 24.5468 8.1184 24.8135 7.68816Z" fill="#397E44"/>
<path d="M27.0518 2.48851C27.4001 2.19307 29.1049 3.89766 30.2749 5.75688C31.7974 8.16985 32.637 11.1675 32.2089 11.4212C31.7672 11.6812 29.9413 9.03677 28.8882 7.18312C27.9602 5.54566 26.6654 2.81431 27.0518 2.48851Z" fill="#397E44"/>
<path d="M33.6106 11.0615C33.2411 11.0038 33.107 9.39572 33.3859 8.00292C33.7453 6.18979 34.8367 4.48776 35.237 4.60312C35.6501 4.72148 35.3528 6.79073 35.0003 8.12376C34.6944 9.29657 34.0207 11.1247 33.6106 11.0615Z" fill="#397E44"/>
<path opacity="0.56" d="M33.6174 15.5606C33.3396 15.4942 32.8878 15.4276 32.3468 15.4985C31.792 15.5748 31.3678 15.7655 31.1159 15.9006" stroke="#603913" stroke-width="0.25" stroke-miterlimit="10" stroke-linecap="round"/>
<path opacity="0.56" d="M32.2813 16.1897C32.1666 16.1756 31.9791 16.1661 31.743 16.2276C31.5011 16.2901 31.3121 16.3989 31.1974 16.4791" stroke="#603913" stroke-width="0.25" stroke-miterlimit="10" stroke-linecap="round"/>
<path opacity="0.56" d="M40.8924 27.3494C40.7777 27.3353 40.5902 27.3259 40.3541 27.3874C40.1122 27.4499 39.9232 27.5586 39.8085 27.6388" stroke="#603913" stroke-width="0.25" stroke-miterlimit="10" stroke-linecap="round"/>
<path opacity="0.56" d="M40.7885 27.6607C40.7068 27.6493 40.5727 27.6417 40.4165 27.6736C40.258 27.7089 40.1378 27.7754 40.0667 27.821" stroke="#603913" stroke-width="0.25" stroke-miterlimit="10" stroke-linecap="round"/>
</svg>
