<svg width="24" height="25" viewBox="0 0 24 25" fill="none" xmlns="http://www.w3.org/2000/svg">
<path d="M9 20.75H4.5C4.30109 20.75 4.11032 20.671 3.96967 20.5303C3.82902 20.3897 3.75 20.1989 3.75 20V15.8107C3.75 15.7122 3.7694 15.6146 3.80709 15.5236C3.84478 15.4327 3.90003 15.35 3.96967 15.2803L15.2197 4.03033C15.3603 3.88968 15.5511 3.81066 15.75 3.81066C15.9489 3.81066 16.1397 3.88968 16.2803 4.03033L20.4697 8.21967C20.6103 8.36032 20.6893 8.55109 20.6893 8.75C20.6893 8.94891 20.6103 9.13968 20.4697 9.28033L9 20.75Z" stroke="#304D95" stroke-width="2" stroke-linecap="round" stroke-linejoin="round"/>
<path d="M12.75 6.5L18 11.75" stroke="#304D95" stroke-width="2" stroke-linecap="round" stroke-linejoin="round"/>
<path d="M20.25 20.75H9.00001L3.79773 15.5477" stroke="#304D95" stroke-width="2" stroke-linecap="round" stroke-linejoin="round"/>
</svg>
